# xmcd
#
# Track frame offsets:
#	150
#	22575
#	45225
#	71325
#	93225
#	117000
#	137700
#	157350
#
# Disc length: 2420 seconds
#
# Revision: 0
# Processed by: cddbd v1.5.2PL0 Copyright (c) Steve Scherf et al.
# Submitted via: EasyCDDAExtractor 12.0.0.1
#
DISCID=59097208
DTITLE=Various Artist - Eesti Dubstep 2
DYEAR=2010
DGENRE=Dubstep
TTITLE0=Espirit - Goat
TTITLE1=K‰‰rk‰si - Muusika surnutelt
TTITLE2=Deyal - Carpet Treatment
TTITLE3=KGB - Low Kill
TTITLE4=Intermetric - Kuandu
TTITLE5=L-OW - Rasta From Alaska VIP
TTITLE6=Plookie - Empress [Gee Remix]
TTITLE7=STM - Empty
EXTD=
EXTT0=
EXTT1=
EXTT2=
EXTT3=
EXTT4=
EXTT5=
EXTT6=
EXTT7=
PLAYORDER=
